<?xml version="1.0" encoding="UTF-8"?>
<svg width="162px" height="43px" viewBox="0 0 162 43" version="1.1" xmlns="http://www.w3.org/2000/svg" xmlns:xlink="http://www.w3.org/1999/xlink">
    <title>ic-bunny-cdn</title>
    <defs>
        <path d="M7.8749,9.6853 L16.1969,11.1243 C9.9549,10.0443 9.5709,4.85025 1.17292,0.28125 C0.25592,3.31025 2.1549,8.7733 7.8749,9.6853 Z" id="path-1"></path>
        <path d="M0.17578,0.28125 C8.5738,4.84925 8.9578,10.0443 15.1998,11.1243 C18.3328,11.6663 15.5038,17.0122 12.1618,16.4482 C18.1658,18.4893 23.6438,13.0493 20.5108,11.3433 L0.17578,0.28125 Z" id="path-3"></path>
        <path d="M9.1656,5.4516 C9.1646,5.4516 9.1616,5.4516 9.1606,5.4516 C8.7676,5.3846 8.3676,5.2376 7.9686,4.9886 C5.4566,3.4256 2.9286,2.9196 0.6406,3.1666 C5.4156,3.7506 9.9566,10.0046 9.3926,14.6336 C9.4916,16.2146 8.9366,17.8256 7.7296,19.0326 L4.9746,21.7876 C7.0996,23.1866 10.3276,21.7286 11.3136,19.6996 L16.8706,8.2676 C18.2346,7.9446 26.9386,5.6886 23.0116,3.3396 L17.5196,0.3516 C20.6276,2.0646 15.1586,7.4866 9.1656,5.4516 Z" id="path-5"></path>
        <path d="M9.6364,0.1641 C2.1634,0.9771 -2.7326,9.8461 3.9224,16.2571 L9.4974,21.8321 C5.8404,18.1751 5.4914,12.8271 7.7484,9.1091 C7.9904,8.6941 8.2904,8.3031 8.6464,7.9471 C10.8784,5.7131 14.4974,5.7131 16.7294,7.9471 C17.7544,8.9711 18.3084,10.2881 18.3924,11.6301 C18.9564,7.0021 14.4174,0.7521 9.6454,0.1641 L9.6364,0.1641 Z" id="path-7"></path>
        <path d="M3.4987,12.8324 L6.6377,15.9704 C7.6857,15.1374 8.3127,12.6954 6.6877,11.0714 L2.6467,7.0294 C0.76967,5.1534 0.47167,2.2984 1.7487,0.1094 C-0.50733,3.8274 -0.15833,9.1754 3.4987,12.8324 Z" id="path-9"></path>
        <path d="M1.0565,6.421 L10.4105,11.51 L1.7425,0 C0.5565,1.351 -0.0185,4.03 1.0565,6.421 Z" id="path-11"></path>
        <path d="M0.5586,2.9884 C0.5586,4.1644 1.5126,5.1174 2.6866,5.1174 C3.8636,5.1174 4.8166,4.1644 4.8166,2.9884 C4.8166,1.8134 3.8636,0.8594 2.6866,0.8594 C1.5116,0.8594 0.5586,1.8134 0.5586,2.9884 Z" id="path-13"></path>
        <path d="M0,2.6993 C0,3.8743 0.955,4.8283 2.13,4.8283 C3.306,4.8283 4.258,3.8743 4.258,2.6993 C4.258,1.5243 3.306,0.5703 2.13,0.5703 C0.955,0.5703 0,1.5243 0,2.6993 Z" id="path-15"></path>
    </defs>
    <g id="Page-1" stroke="none" stroke-width="1" fill="none" fill-rule="evenodd" opacity="0.6">
        <g id="Capcon-After--Home-Page01" transform="translate(-234.000000, -1102.000000)">
            <g id="Group-28" transform="translate(-493.297025, -237.631490)">
                <g id="Group-16" transform="translate(718.297025, 1291.631490)">
                    <g id="ic-bunny-cdn" transform="translate(10.000000, 49.000000)">
                        <g id="Group">
                            <path d="M121.104,32.3475 C123.274,32.3475 125.266,31.4165 126.707,29.9565 L125.134,28.4505 C124.115,29.5575 122.677,30.2885 121.105,30.2885 C118.072,30.2885 115.504,27.6315 115.504,24.4655 C115.504,21.3215 118.071,18.6645 121.105,18.6645 C122.677,18.6645 124.116,19.3955 125.134,20.5025 L126.707,18.9975 C125.267,17.5135 123.274,16.6055 121.104,16.6055 C116.832,16.6055 113.201,20.1925 113.201,24.4655 C113.2,28.7385 116.831,32.3475 121.104,32.3475 Z M134.476,32.0815 L129.229,32.0815 L129.229,16.8715 L134.476,16.8715 C139.391,16.8715 142.89,20.0155 142.89,24.4655 C142.89,28.9145 139.391,32.0815 134.476,32.0815 Z M146.099,32.0815 L148.335,32.0815 L148.335,20.5465 L157.081,32.0815 L159.316,32.0815 L159.316,16.8715 L157.081,16.8715 L157.081,28.4065 L148.335,16.8715 L146.099,16.8715 L146.099,32.0815 Z M131.465,30.0445 L131.465,18.9085 L134.61,18.9085 C138.13,18.9085 140.588,21.2105 140.588,24.4655 C140.588,27.7425 138.13,30.0445 134.61,30.0445 L131.465,30.0445 Z M106.227,33.1225 C105.407,35.1805 104.19,36.0435 102.551,36.0665 C101.776,36.0665 100.979,35.8895 100.382,35.5795 L100.868,33.8965 C101.312,34.1405 101.821,34.2505 102.263,34.2505 C102.972,34.2505 103.459,34.0295 103.835,33.3655 L104.41,32.1475 L99.4966,20.6355 L101.843,20.6355 L105.518,29.6675 L108.994,20.6355 L111.274,20.6355 L106.227,33.1225 Z M93.0976,20.3695 C91.5476,20.3695 90.1536,21.1665 89.4666,22.2955 L89.4666,20.6355 L87.2746,20.6355 L87.2746,32.0815 L89.4666,32.0815 L89.4666,24.6645 C89.6436,23.3135 91.0166,22.2735 92.6106,22.2735 C94.1606,22.2735 95.2456,23.4695 95.2456,25.1735 L95.2456,32.0815 L97.3926,32.0815 L97.3926,24.7975 C97.3926,22.2065 95.6216,20.3695 93.0976,20.3695 Z M76.2046,22.2955 C76.8906,21.1665 78.2856,20.3695 79.8346,20.3695 C82.3586,20.3695 84.1306,22.2065 84.1296004,24.7975 L84.1296004,32.0815 L81.9826,32.0815 L81.9826,25.1735 C81.9826,23.4695 80.8976,22.2735 79.3476,22.2735 C77.7536,22.2735 76.3806,23.3135 76.2046,24.6645 L76.2046,32.0815 L74.0116,32.0815 L74.0116,20.6355 L76.2046,20.6355 L76.2046,22.2955 Z M68.6336,20.6355 L68.6336,28.0515 C68.4556,29.4025 67.0836,30.4425 65.4896,30.4425 C63.9396,30.4425 62.8546,29.2475 62.8546,27.5425 L62.8546,20.6355 L60.7066,20.6355 L60.7066,27.9185 C60.7066,30.5095 62.4776,32.3475 65.0016,32.3475 C66.5516,32.3475 67.9466,31.5505 68.6336,30.4205 L68.6336,32.0815 L70.8246,32.0815 L70.8246,20.6355 L68.6336,20.6355 Z M48.0866,25.1075 L48.0866,30.1105 L52.8466,30.1105 C54.5516,30.1105 55.7466,29.0705 55.7466,27.6085 C55.7466,26.1475 54.5516,25.1075 52.8466,25.1075 L48.0866,25.1075 Z M48.0866,23.2035 L48.0866,18.8415 L52.5146,18.8415 C54.0416,18.8415 55.1266,19.7715 55.1266,21.0335 C55.1266,22.2955 54.0416,23.2035 52.5146,23.2035 L48.0866,23.2035 Z M53.3566,32.0815 L45.8516,32.0815 L45.8516,16.8715 L53.0696,16.8715 C55.6156,16.8715 57.4086,18.4435 57.4086,20.6575 C57.4086,22.2515 56.6116,23.2475 55.2386,24.0225 C57.0096,24.8865 58.0286,26.2585 58.0286,27.9415 C58.0286,30.3765 56.0806,32.0815 53.3566,32.0815 Z" id="Shape" fill="#FFFFFF"></path>
                            <g id="Clipped" transform="translate(8.000000, 2.000000)">
                                <mask id="mask-2" fill="white">
                                    <use xlink:href="#path-1"></use>
                                </mask>
                                <g id="Path"></g>
                                <rect id="Rectangle" fill="#FFFFFF" fill-rule="nonzero" mask="url(#mask-2)" x="0.25781" y="0.28125" width="15.941" height="10.843"></rect>
                            </g>
                            <g id="Clipped" transform="translate(9.000000, 2.000000)">
                                <mask id="mask-4" fill="white">
                                    <use xlink:href="#path-3"></use>
                                </mask>
                                <g id="Path"></g>
                                <rect id="Rectangle" fill="#FFFFFF" fill-rule="nonzero" mask="url(#mask-4)" x="0.17578" y="0.28125" width="23.469" height="18.208"></rect>
                            </g>
                            <g id="Clipped" transform="translate(12.000000, 13.000000)">
                                <mask id="mask-6" fill="white">
                                    <use xlink:href="#path-5"></use>
                                </mask>
                                <g id="Path"></g>
                                <rect id="Rectangle" fill="#FFFFFF" fill-rule="nonzero" mask="url(#mask-6)" x="0.6406" y="0.3516" width="26.298" height="22.835"></rect>
                            </g>
                            <g id="Clipped" transform="translate(3.000000, 16.000000)">
                                <mask id="mask-8" fill="white">
                                    <use xlink:href="#path-7"></use>
                                </mask>
                                <g id="Path"></g>
                                <rect id="Rectangle" fill="#FFFFFF" fill-rule="nonzero" mask="url(#mask-8)" x="-2.734375" y="0.1641" width="21.69" height="21.668"></rect>
                            </g>
                            <g id="Clipped" transform="translate(9.000000, 25.000000)">
                                <mask id="mask-10" fill="white">
                                    <use xlink:href="#path-9"></use>
                                </mask>
                                <g id="Path"></g>
                                <polygon id="Path" fill="#FFFFFF" fill-rule="nonzero" mask="url(#mask-10)" points="4.3655 20.3557 -8.394531 8.8717 3.4395 -4.2773 16.1995 7.2067"></polygon>
                            </g>
                            <g id="Clipped" transform="translate(19.000000, 0.000000)">
                                <mask id="mask-12" fill="white">
                                    <use xlink:href="#path-11"></use>
                                </mask>
                                <g id="Path"></g>
                                <rect id="Rectangle" fill="#FFFFFF" fill-rule="nonzero" mask="url(#mask-12)" x="-0.0195" y="0" width="10.429" height="11.51"></rect>
                            </g>
                            <g id="Clipped" transform="translate(13.000000, 25.000000)">
                                <mask id="mask-14" fill="white">
                                    <use xlink:href="#path-13"></use>
                                </mask>
                                <g id="Path"></g>
                                <rect id="Rectangle" fill="#FFFFFF" fill-rule="nonzero" mask="url(#mask-14)" x="0.5586" y="0.8594" width="4.258" height="4.258"></rect>
                            </g>
                            <g id="Clipped" transform="translate(0.000000, 15.000000)">
                                <mask id="mask-16" fill="white">
                                    <use xlink:href="#path-15"></use>
                                </mask>
                                <g id="Path"></g>
                                <rect id="Rectangle" fill="#FFFFFF" fill-rule="nonzero" mask="url(#mask-16)" x="0" y="0.5703" width="4.258" height="4.258"></rect>
                            </g>
                        </g>
                    </g>
                </g>
            </g>
        </g>
    </g>
</svg>