<?xml version="1.0" encoding="UTF-8"?>
<svg width="98px" height="37px" viewBox="0 0 98 37" version="1.1" xmlns="http://www.w3.org/2000/svg" xmlns:xlink="http://www.w3.org/1999/xlink">
    <title>ic-lime</title>
    <g id="Page-1" stroke="none" stroke-width="1" fill="none" fill-rule="evenodd" opacity="0.6">
        <g id="Capcon-After--Home-Page01" transform="translate(-1108.000000, -1105.000000)" fill="#FFFFFF">
            <g id="Group-28" transform="translate(-493.297025, -237.631490)">
                <g id="Group-16" transform="translate(718.297025, 1291.631490)">
                    <g id="ic-lime" transform="translate(884.000000, 52.000000)">
                        <g id="Group">
                            <polygon id="Path" fill-rule="nonzero" points="15 29.1274 15 32 0 32 0 6 3.27507 6 3.27507 29.1274"></polygon>
                            <rect id="Rectangle" fill-rule="nonzero" x="23" y="6" width="3" height="26"></rect>
                            <polygon id="Path" fill-rule="nonzero" points="96 29.1739 96 32 78 32 78 6 95.5539 6 95.5539 8.82276 81.1706 8.82276 81.1706 17.5437 94.0456 17.5437 94.0456 20.3332 81.1706 20.3332 81.1706 29.1739"></polygon>
                            <path d="M64.4915,24.0771 C64.2678,24.078 64.0444,24.092 63.8224,24.1189 L58.0511,9.89676 C60.2998,8.89483 61.5361,6.47527 61.0182,4.08961 C60.5003,1.70394 58.3689,0 55.9026,0 C53.4364,0 51.305,1.70394 50.7871,4.08961 C50.2692,6.47527 51.5055,8.89483 53.7542,9.89676 L48.6454,25.1214 L48.6292,25.1214 L43.7835,15.9667 C45.5191,14.9735 46.3576,12.9457 45.8233,11.0337 C45.2889,9.12173 43.5167,7.80814 41.5119,7.83815 C39.5071,7.86816 37.7758,9.23418 37.3002,11.1613 C36.8246,13.0884 37.7247,15.0902 39.4899,16.031 L35.6997,26.034 L35.5373,26.034 C33.814,26.0308 32.3403,27.259 32.0506,28.9397 C31.7609,30.6204 32.7399,32.2624 34.3669,32.8245 C35.9938,33.3866 37.7931,32.7044 38.6238,31.2106 C39.4545,29.7168 39.0738,27.8479 37.7231,26.7891 L41.5717,16.6222 L46.4174,25.7769 C44.7259,26.82 43.9549,28.8581 44.5386,30.7437 C45.1224,32.6292 46.9149,33.8905 48.9067,33.8172 C50.8985,33.744 52.5914,32.3545 53.0321,30.4313 C53.4727,28.5081 52.5509,26.5322 50.7857,25.6163 L55.9043,10.353 L61.7503,24.7872 C59.3378,26.1437 58.3177,29.0611 59.3672,31.6026 C60.4167,34.1441 63.2098,35.5201 65.8922,34.817 C68.5746,34.1139 70.3128,31.5503 69.9529,28.8281 C69.5931,26.1058 67.2469,24.0707 64.472,24.0739 L64.4915,24.0771 Z M48.7396,31.6862 C47.8329,31.6862 47.0156,31.1457 46.6689,30.3168 C46.3222,29.4879 46.5146,28.534 47.1562,27.9001 C47.7977,27.2663 48.7622,27.0774 49.5995,27.4216 C50.4367,27.7657 50.9819,28.5752 50.9806023,29.4723 C50.9788,30.6955 49.976,31.6862 48.7396,31.6862 Z M55.9043,2.13982 C54.2074,2.13982 52.8318,3.50078 52.8318,5.17962 C52.8318,6.85845 54.2074,8.21941 55.9043,8.21941 C57.6011,8.21941 58.9767,6.85845 58.9767,5.17962 C58.9767,3.50078 57.6011,2.13982 55.9043,2.13982 Z" id="Shape"></path>
                        </g>
                    </g>
                </g>
            </g>
        </g>
    </g>
</svg>