<?xml version="1.0" encoding="UTF-8"?>
<svg width="130px" height="42px" viewBox="0 0 130 42" version="1.1" xmlns="http://www.w3.org/2000/svg" xmlns:xlink="http://www.w3.org/1999/xlink">
    <title>ic-manao</title>
    <g id="Page-1" stroke="none" stroke-width="1" fill="none" fill-rule="evenodd" opacity="0.6">
        <g id="Capcon-After--Home-Page01" transform="translate(-808.000000, -1186.000000)" fill="#FFFFFF">
            <g id="Group-28" transform="translate(-493.297025, -237.631490)">
                <g id="Group-16" transform="translate(718.297025, 1291.631490)">
                    <g id="ic-manao" transform="translate(584.000000, 133.000000)">
                        <g id="Group">
                            <polygon id="Path" points="22.054 0.03125 24.8664 0.03125 28.7377 25.5058 24.8664 25.5058 24.7672 24.9768 24.8003 24.9768 21.8886 5.91255 22.9143 3.99637 23.2452 6.17671 25.9914 24.1843 27.1825 24.1843 26.587 19.9883 23.8407 2.24478 23.7414 1.38592 22.8812 1.38592 21.657 3.59945 21.5577 3.86429 18.3482 9.81129 15.966 14.3711 15.1719 12.9833 16.8924 9.81129"></polygon>
                            <polygon id="Path" points="19.5045 15.4961 19.5376 15.7278 19.8353 17.6771 15.8649 25.1773 4.74761 4.26252 1.67048 24.1863 5.4093 24.1863 6.63358 16.0251 6.93134 16.5866 7.69232 18.0077 6.53429 25.5078 0.148438 25.5078 4.01968 0.132812 4.21821 0.495864 14.6738 20.188 15.8649 22.4022"></polygon>
                            <polygon id="Path" points="2.99609 23.2261 5.34523 8.02734 14.6759 25.506 13.1869 25.506 6.04011 12.0914 4.31954 23.2261"></polygon>
                            <polygon id="Path" points="15.8322 17.0473 20.9276 7.63095 23.6738 25.5058 22.3504 25.5058 20.2328 11.695 15.8322 19.8555 5.27734 0.03125 6.76626 0.03125"></polygon>
                            <polygon id="Path" points="42.602 6.27887 38.1683 16.8514 44.6204 16.8514 42.602 12.49 41.2455 15.8273 39.8558 15.8273 42.602 9.15348 46.6056 18.0083 36.0508 18.0083 42.602 3.30469 51.5687 23.2285 50.0797 23.2285"></polygon>
                            <polygon id="Path" points="41.4445 0.0664062 43.7606 0.0664062 55.2419 25.4746 48.5252 25.5078 46.2091 20.2544 36.7131 20.2212 35.4227 23.2611 33.8344 23.2611 35.6874 18.9986 46.9701 18.9986 49.3193 24.2188 53.1574 24.2188 43.0327 1.32219 42.1724 1.32219 32.0808 24.2188 36.4152 24.2188 37.5733 21.3449 45.415 21.3449 45.9444 22.5668 38.4005 22.5668 37.1432 25.4746 30.0625 25.4746"></polygon>
                            <polygon id="Path" points="75.3232 19.9915 75.3232 21.9077 57.9194 4.26377 57.9194 25.5091 56.6289 25.5091 56.6289 1.125"></polygon>
                            <polygon id="Path" points="71.521 10.8374 71.521 0.0664062 77.8406 0.0664062 77.8406 25.5078 75.5246 25.5078 60.4037 10.408 60.4037 24.2188 61.5948 24.2188 61.5948 13.4146 62.9183 14.8025 62.9183 25.5078 59.1133 25.5078 59.1133 7.20349 75.7893 24.0542 75.9216 24.2188 76.5503 24.2188 76.5503 1.3547 72.8445 1.3547 72.8445 12.2584"></polygon>
                            <polygon id="Path" points="75.3237 2.61048 75.3237 18.3707 57.3242 0.0664062 59.144 0.0664062 74.0333 15.1662 74.0333 2.61048"></polygon>
                            <polygon id="Path" points="90.6416 0.0664062 92.9578 0.0664062 104.439 25.4746 97.7223 25.5078 95.4062 20.2544 85.9102 20.2212 84.6198 23.2611 83.0316 23.2611 84.8845 18.9986 96.1672 18.9986 98.4833 24.2188 102.355 24.2188 92.2298 1.32219 91.3696 1.32219 81.2779 24.2188 85.6124 24.2188 86.7705 21.3449 94.6121 21.3449 95.1415 22.5668 87.5646 22.5668 86.3403 25.4746 79.2266 25.4746"></polygon>
                            <polygon id="Path" points="91.8013 6.27887 87.3676 16.8514 93.7865 16.8514 91.8013 12.49 90.4447 15.8273 89.0219 15.8273 91.8013 9.15348 95.8048 18.0083 85.25 18.0083 91.8013 3.30469 100.768 23.2285 99.2459 23.2285"></polygon>
                            <path d="M126.247,6.44349 C127.371,8.42537 127.967,10.54 127.967,12.7542 C127.967,17.1156 125.485,21.4769 121.548,23.7569 C119.563,24.9131 117.445,25.5078 115.195,25.5078 C110.795,25.5078 106.46,23.0294 104.144,19.065 C102.986,17.1156 102.391,15.0009 102.391,12.7542 C102.391,8.26078 104.872,4.0315 108.876,1.7184 C110.861,0.5947 112.979,0 115.195,0 C119.662,0 123.963,2.47837 126.247,6.44349 Z M115.195,24.2188 C119.364,24.2188 123.136,22.0385 125.155,18.5028 C126.18,16.7519 126.677,14.8357 126.677,12.7542 C126.677,8.59064 124.526,4.85717 120.919,2.80891 C119.133,1.78478 117.214,1.28897 115.162,1.28897 C110.993,1.28897 107.287,3.46931 105.236,7.005 C104.21,8.7891 103.714,10.7053 103.714,12.7867 C103.714,16.9503 105.898,20.6506 109.438,22.6995 C111.192,23.7237 113.111,24.2188 115.195,24.2188 Z" id="Shape"></path>
                            <path d="M115.193,4.85547 C117.972,4.85547 120.619,6.4086 121.943,8.75421 C122.637,9.94361 122.968,11.2658 122.968,12.7525 C122.968,15.6596 121.612,18.1712 119.163,19.5916 C117.972,20.3184 116.616,20.6821 115.193,20.6821 C112.314,20.6821 109.766,19.1953 108.311,16.6844 C107.583,15.4287 107.219,14.1397 107.219,12.7525 C107.219,9.87791 108.774,7.23427 111.189,5.8796 C112.38,5.18601 113.704,4.85547 115.193,4.85547 Z M120.851,15.9902 C121.413,14.9992 121.711,13.9087 121.711,12.7525 C121.711,10.373 120.487,8.1927 118.468,7.03649 C117.443,6.4743 116.351,6.17695 115.193,6.17695 C112.844,6.17695 110.66,7.43273 109.469,9.48099 C108.84,10.5058 108.542,11.5956 108.542,12.7525 C108.542,15.0981 109.766,17.246 111.818,18.4022 C112.81,18.9637 113.935,19.261 115.16,19.261 C117.608,19.261 119.693,18.0391 120.851,15.9902 Z" id="Shape"></path>
                            <path d="M124.161,7.46778 C125.021,9.02023 125.451,10.805 125.418,12.7869 C125.418,16.4547 123.565,19.7919 120.355,21.6424 C118.734,22.6001 117.014,23.0627 115.161,23.0627 C111.554,23.0627 108.014,21.1134 106.161,17.9082 C105.202,16.3558 104.738,14.6374 104.738,12.7869 C104.738,9.15299 106.69,5.65049 109.867,3.86639 C111.455,2.94115 113.242,2.51172 115.161,2.51172 C119.131,2.51172 122.407,4.32901 124.161,7.46778 Z M122.969,17.2146 C123.763,15.86 124.161,14.3732 124.161,12.7544 C124.161,9.45034 122.473,6.54254 119.694,4.95622 C118.304,4.19693 116.782,3.80001 115.194,3.80001 C111.984,3.80001 108.973,5.51841 107.385,8.22775 C106.591,9.61561 106.194,11.1681 106.194,12.7869 C106.194,15.992 107.915,18.9655 110.694,20.5519 C112.018,21.3775 113.54,21.7745 115.194,21.7745 C118.503,21.7745 121.348,20.0229 122.969,17.2146 Z" id="Shape"></path>
                            <path d="M3.13748,37.5038 C2.24279,37.5038 1.49122,37.1976 0.894692,36.5867 C0.298231,35.9635 0,35.2056 0,34.3007 C0,33.3964 0.298231,32.6385 0.894692,32.0275 C1.49122,31.4037 2.24279,31.0982 3.13748,31.0982 C4.31849,31.0982 5.3206,31.7221 5.75003,32.6995 L5.10589,33.0788 C4.78375,32.3452 4.03218,31.8806 3.13748,31.8806 C2.48135,31.8806 1.92065,32.1129 1.46731,32.5897 C1.01404,33.0544 0.787334,33.6288 0.787334,34.3007 C0.787334,34.9733 1.01404,35.5476 1.46731,36.0245 C1.92065,36.4891 2.48135,36.7215 3.13748,36.7215 C4.03218,36.7215 4.7599,36.2568 5.15357,35.5233 L5.80971,35.9148 C5.3206,36.8922 4.29464,37.5038 3.13748,37.5038 Z M11.9415,36.5867 C11.3331,37.1976 10.5935,37.5038 9.7226,37.5038 C8.85175,37.5038 8.10018,37.1976 7.4918,36.5867 C6.88335,35.9635 6.58512,35.2056 6.58512,34.3007 C6.58512,33.3964 6.88335,32.6385 7.4918,32.0275 C8.10018,31.4037 8.85175,31.0982 9.7226,31.0982 C10.5935,31.0982 11.3331,31.4037 11.9415,32.0275 C12.5499,32.6385 12.8601,33.3964 12.8601,34.3007 C12.8601,35.2056 12.5499,35.9635 11.9415,36.5867 Z M8.0525,36.0245 C8.50577,36.4891 9.06647,36.7215 9.7226,36.7215 C10.3787,36.7215 10.9394,36.4891 11.3928,36.0245 C11.846,35.5476 12.0728,34.9733 12.0728,34.3007 C12.0728,33.6288 11.846,33.0544 11.3928,32.5897 C10.9394,32.1129 10.3787,31.8806 9.7226,31.8806 C9.06647,31.8806 8.50577,32.1129 8.0525,32.5897 C7.59916,33.0544 7.37245,33.6288 7.37245,34.3007 C7.37245,34.9733 7.59916,35.5476 8.0525,36.0245 Z M16.9639,31.0982 C18.4073,31.0982 19.3021,32.0763 19.3021,33.6044 L19.3021,37.3568 L18.5147,37.3568 L18.5147,33.6044 C18.5147,32.5166 17.9301,31.8806 16.8923,31.8806 C15.747,31.8806 14.9597,32.6019 14.9597,34.1544 L14.9597,37.3568 L14.1724,37.3568 L14.1724,31.2452 L14.9597,31.2452 L14.9597,32.1982 C15.4011,31.4653 16.0692,31.0982 16.9639,31.0982 Z M21.4494,32.8464 C21.4494,33.3964 21.9981,33.7019 22.6781,33.8855 C23.6802,34.1422 24.9328,34.4233 24.9328,35.7434 C24.9328,36.269 24.73,36.6849 24.3244,37.0148 C23.9307,37.3446 23.4059,37.5038 22.7736,37.5038 C21.6283,37.5038 20.7932,36.9287 20.4712,36.0976 L21.1392,35.6946 C21.3659,36.33 21.9743,36.7215 22.7736,36.7215 C23.549,36.7215 24.1454,36.416 24.1454,35.7434 C24.1454,35.1934 23.5967,34.8879 22.9167,34.7044 C21.9146,34.4477 20.662,34.1666 20.662,32.8464 C20.662,32.3452 20.8529,31.9293 21.2347,31.5995 C21.6283,31.2696 22.1174,31.0982 22.702,31.0982 C23.6683,31.0982 24.4437,31.5751 24.7897,32.3452 L24.1335,32.736 C23.9069,32.1616 23.4297,31.8806 22.702,31.8806 C22.022,31.8806 21.4494,32.2226 21.4494,32.8464 Z M30.4443,34.4477 L30.4443,31.2452 L31.2316,31.2452 L31.2316,37.3568 L30.4443,37.3568 L30.4443,36.4031 C30.0029,37.1367 29.3348,37.5038 28.4401,37.5038 C26.9966,37.5038 26.1019,36.5257 26.1019,34.9976 L26.1019,31.2452 L26.8893,31.2452 L26.8893,34.9976 C26.8893,36.0855 27.4738,36.7215 28.5117,36.7215 C29.6569,36.7215 30.4443,36.0001 30.4443,34.4477 Z M33.6892,37.3568 L32.9018,37.3568 L32.9018,28.4336 L33.6892,28.4336 L33.6892,37.3568 Z M38.5206,31.2452 L38.5206,32.0275 L36.8027,32.0275 L36.8027,35.7312 C36.8027,36.7824 37.3754,36.6971 38.5206,36.6476 L38.5206,37.3568 C36.8505,37.6135 36.0154,37.1489 36.0154,35.7312 L36.0154,32.0275 L34.7628,32.0275 L34.7628,31.2452 L36.0154,31.2452 L36.0154,29.7781 L36.8027,29.5336 L36.8027,31.2452 L38.5206,31.2452 Z M40.6322,29.7781 C40.4055,30.0104 40.0476,30.0104 39.8209,29.7781 C39.5943,29.5458 39.5943,29.1793 39.8209,28.947 C40.0476,28.7147 40.4055,28.7147 40.6322,28.947 C40.8588,29.1793 40.8588,29.5458 40.6322,29.7781 Z M40.6202,37.3568 L39.8329,37.3568 L39.8329,31.2452 L40.6202,31.2452 L40.6202,37.3568 Z M45.0819,31.0982 C46.5253,31.0982 47.4201,32.0763 47.4201,33.6044 L47.4201,37.3568 L46.6328,37.3568 L46.6328,33.6044 C46.6328,32.5166 46.0482,31.8806 45.0103,31.8806 C43.8651,31.8806 43.0777,32.6019 43.0777,34.1544 L43.0777,37.3568 L42.2904,37.3568 L42.2904,31.2452 L43.0777,31.2452 L43.0777,32.1982 C43.5191,31.4653 44.1872,31.0982 45.0819,31.0982 Z M54.0768,32.4427 L54.0768,31.2452 L54.8641,31.2452 L54.8641,37.1123 C54.8641,37.9928 54.5659,38.6891 53.9814,39.1904 C53.3968,39.6916 52.6929,39.9483 51.8698,39.9483 C50.4741,39.9483 49.5316,39.4471 49.0425,38.4568 L49.7344,38.0538 C50.0923,38.7995 50.8081,39.166 51.8698,39.166 C53.2417,39.166 54.0768,38.3715 54.0768,37.1123 L54.0768,36.1593 C53.528,37.0513 52.7288,37.5038 51.667,37.5038 C50.82,37.5038 50.0923,37.1976 49.4839,36.5745 C48.8874,35.9513 48.5892,35.1934 48.5892,34.3007 C48.5892,33.4086 48.8874,32.6507 49.4839,32.0275 C50.0923,31.4037 50.82,31.0982 51.667,31.0982 C52.7288,31.0982 53.528,31.5507 54.0768,32.4427 Z M50.0566,36.0245 C50.5098,36.4891 51.0705,36.7215 51.7267,36.7215 C52.3828,36.7215 52.9435,36.4891 53.3968,36.0245 C53.8501,35.5476 54.0768,34.9733 54.0768,34.3007 C54.0768,33.6288 53.8501,33.0544 53.3968,32.5897 C52.9435,32.1129 52.3828,31.8806 51.7267,31.8806 C51.0705,31.8806 50.5098,32.1129 50.0566,32.5897 C49.6032,33.0544 49.3765,33.6288 49.3765,34.3007 C49.3765,34.9733 49.6032,35.5476 50.0566,36.0245 Z" id="Shape"></path>
                        </g>
                    </g>
                </g>
            </g>
        </g>
    </g>
</svg>