<?xml version="1.0" encoding="UTF-8"?>
<svg width="110px" height="41px" viewBox="0 0 110 41" version="1.1" xmlns="http://www.w3.org/2000/svg" xmlns:xlink="http://www.w3.org/1999/xlink">
    <title>ic-qanun</title>
    <g id="Page-1" stroke="none" stroke-width="1" fill="none" fill-rule="evenodd" opacity="0.6">
        <g id="Capcon-After--Home-Page01" transform="translate(-710.000000, -1103.000000)">
            <g id="Group-28" transform="translate(-493.297025, -237.631490)">
                <g id="Group-16" transform="translate(718.297025, 1291.631490)">
                    <g id="ic-qanun" transform="translate(486.000000, 50.000000)">
                        <g id="Group">
                            <rect id="Rectangle" fill="#FFFFFF" fill-rule="nonzero" x="30.8398" y="9.80078" width="6.44442" height="6.46674"></rect>
                            <rect id="Rectangle" fill="#FFFFFF" fill-rule="nonzero" x="26.3672" y="0.835938" width="6.44442" height="6.46674"></rect>
                            <rect id="Rectangle" fill="#FFFFFF" fill-rule="nonzero" x="36.5" y="0" width="4.05375" height="4.06779"></rect>
                            <rect id="Rectangle" fill="#FFFFFF" fill-rule="nonzero" x="40.75" y="11.1406" width="5.0751" height="5.09267"></rect>
                            <rect id="Rectangle" fill="#FFFFFF" fill-rule="nonzero" x="43.7969" y="4.06641" width="2.54433" height="2.55314"></rect>
                            <path d="M32.8133,27.7301 L32.8133,18.7647 L28.3483,18.7647 L28.3483,9.79921 L23.8788,9.79921 L23.8788,2.26677 C14.3378,-0.573713 4.26009,4.63058 1.01816,14.0724 C-2.22377,23.5141 2.52047,33.843 11.7801,37.5027 C21.0398,41.1624 31.5292,36.8544 35.5746,27.7301 L32.8133,27.7301 Z" id="Path" fill="#FFFFFF" fill-rule="nonzero"></path>
                            <rect id="Rectangle" fill="#FFFFFF" fill-rule="nonzero" x="35.3086" y="18.7656" width="6.44442" height="6.46674"></rect>
                            <path d="M16.5015,23.3789 L26.611,23.3789 C27.4122,23.3789 28.0616,24.0306 28.0616,24.8346 L28.0616,24.9117 L15.0508,24.9117 L15.0508,24.8346 C15.0508,24.0306 15.7003,23.3789 16.5015,23.3789 L16.5015,23.3789 Z" id="Path" fill="#D9D9D9" fill-rule="nonzero"></path>
                            <path d="M14.6087,24.9063 L28.5008,24.9063 C29.1023,24.9062 29.5899,25.3956 29.5899,25.9992 L29.5899,28.2349 L13.5194906,28.2349 L13.5194906,26.0037 C13.5183,25.7131 13.6326,25.4339 13.8369,25.228 C14.0413,25.022 14.319,24.9062 14.6087,24.9062 L14.6087,24.9063 Z" id="Path" fill="#D9D9D9" fill-rule="nonzero"></path>
                            <polygon id="Path" fill="#D9D9D9" fill-rule="nonzero" points="14.0626 15.4115 19.0824 11.1848 23.2945 16.222 18.2747 20.4487"></polygon>
                            <path d="M12.51,14.9119 C12.2987,14.6592 12.3316,14.2833 12.5836,14.0712 L18.039,9.47765 C18.2921,9.2645 18.6703,9.29759 18.8826,9.55145 C19.0938,9.80409 19.0609,10.18 18.809,10.3921 L13.3536,14.9857 C13.1004,15.1988 12.7223,15.1657 12.51,14.9119 Z" id="Path" fill="#D9D9D9" fill-rule="nonzero"></path>
                            <path d="M18.4475,22.1228 C18.2362,21.8702 18.2691,21.4942 18.5211,21.2821 L23.9765,16.6886 C24.2296,16.4754 24.6078,16.5085 24.8201,16.7624 C25.0313,17.015 24.9984,17.391 24.7465,17.6031 L19.2911,22.1966 C19.0379,22.4097 18.6598,22.3767 18.4475,22.1228 Z" id="Path" fill="#D9D9D9" fill-rule="nonzero"></path>
                            <path d="M7.31032,27.7341 L16.1454,18.8956 L15.2416,17.7891 L5.01455,24.9859 C4.60677,25.2783 4.33826,25.7275 4.27314,26.2261 C4.20803,26.7248 4.35215,27.2282 4.67109,27.6162 C4.99633,27.9982 5.46493,28.2278 5.96519,28.2502 C6.46545,28.2725 6.95253,28.0856 7.31032,27.7341 Z" id="Path" fill="#D9D9D9" fill-rule="nonzero"></path>
                            <path d="M61.0793,21.2343 C61.5522,20.3101 61.7821,19.2919 61.7494,18.266 C61.7494,16.589 61.2996,15.3236 60.4321,14.4136 C59.5645,13.5036 58.3114,13.0703 56.6635,13.0703 C55.0157,13.0703 53.7396,13.5123 52.8767,14.4006 C52.0137,15.289 51.5547,16.5716 51.5547,18.253 C51.5547,19.9343 52.0137,21.2343 52.8812,22.101 C53.7595,22.9994 55.0172,23.4486 56.6544,23.4486 L56.8242,23.4486 L58.7842,25.715 L61.6898,25.715 L59.1147,22.998 C59.9639,22.6395 60.6574,22.017 61.0793,21.2343 Z M54.6209,20.801 C54.1172,20.0448 53.881,19.1571 53.9462,18.266 L53.9416,18.266 C53.8731,17.3718 54.1095,16.4805 54.6163,15.7223 C55.104,15.1329 55.8683,14.8087 56.6589,14.8556 C58.4583,14.8614 59.358,15.9982 59.358,18.266 C59.358,20.5338 58.4568,21.6676 56.6544,21.6676 C55.8663,21.7148 55.1047,21.3902 54.6209,20.801 Z" id="Shape" fill="#FFFFFF"></path>
                            <path d="M69.7365,20.9225 L70.5123,23.3275 L72.9359,23.3275 L69.149,13.1875 L66.3949,13.1875 L62.6172,23.3275 L65.0637,23.3275 L65.8395,20.9225 L69.7365,20.9225 Z M67.9831,15.4322 C68.0749,15.7153 68.4788,16.9474 69.1949,19.1285 L66.4133,19.1285 C67.1722,16.7914 67.6312,15.3339 67.7903,14.7562 C67.827,14.9237 67.8913,15.1491 67.9831,15.4322 Z" id="Shape" fill="#FFFFFF"></path>
                            <path d="M83.7926,23.3271 L80.9329,23.3271 L76.2555,15.6875 L76.1912,15.6875 C76.283,17.0395 76.3289,18.0029 76.3289,18.5778 L76.3289,23.3445 L74.3047,23.3445 L74.3047,13.2305 L77.1644,13.2305 L81.8096,20.8008 L81.8509,20.8008 C81.7775,19.4892 81.7408,18.5619 81.7408,18.0188 L81.7408,13.2521 L83.7834,13.2521 L83.7926,23.3271 Z" id="Path" fill="#FFFFFF" fill-rule="nonzero"></path>
                            <path d="M95.1897,13.2309 L95.1897,19.7656 C95.2054,20.4521 95.0212,21.1296 94.6573,21.7242 C94.2995,22.2957 93.7643,22.7496 93.1241,23.0242 C92.3787,23.3335 91.5695,23.4816 90.7556,23.4576 C89.5887,23.5275 88.438,23.1706 87.5425,22.4609 C86.7603,21.7486 86.3434,20.7512 86.3996,19.7266 L86.3996,13.2266 L88.6625,13.2266 L88.6625,19.4102 C88.6045,20.0252 88.7802,20.6397 89.1582,21.1436 C89.6015,21.5407 90.208,21.7326 90.8153,21.6679 C91.4052,21.7139 91.9869,21.5145 92.4081,21.1219 C92.7877,20.6186 92.9651,20.0041 92.9084,19.3886 L92.9084,13.2309 L95.1897,13.2309 Z" id="Path" fill="#FFFFFF" fill-rule="nonzero"></path>
                            <path d="M107.298,23.3271 L104.415,23.3271 L99.7516,15.6875 L99.6873,15.6875 C99.7791,17.0395 99.825,18.0029 99.825,18.5778 L99.825,23.3445 L97.8008,23.3445 L97.8008,13.2305 L100.67,13.2305 L105.315,20.8008 L105.365,20.8008 C105.292,19.4892 105.255,18.5619 105.255,18.0188 L105.255,13.2521 L107.298,13.2521 L107.298,23.3271 Z" id="Path" fill="#FFFFFF" fill-rule="nonzero"></path>
                        </g>
                    </g>
                </g>
            </g>
        </g>
    </g>
</svg>