<?xml version="1.0" encoding="UTF-8"?>
<svg width="175px" height="37px" viewBox="0 0 175 37" version="1.1" xmlns="http://www.w3.org/2000/svg" xmlns:xlink="http://www.w3.org/1999/xlink">
    <title>ic-rthyca</title>
    <g id="Page-1" stroke="none" stroke-width="1" fill="none" fill-rule="evenodd" opacity="0.6">
        <g id="Capcon-After--Home-Page01" transform="translate(-877.000000, -1105.000000)" fill="#FFFFFF">
            <g id="Group-28" transform="translate(-493.297025, -237.631490)">
                <g id="Group-16" transform="translate(718.297025, 1291.631490)">
                    <g id="ic-rthyca" transform="translate(653.000000, 52.000000)">
                        <g id="Group">
                            <path d="M0.578859,19.2111 C0.421283,19.2111 0.342495,19.1333 0.18492,19.0556 L0.0273438,18.8222 L0.0273438,15.4 C0.0273438,11.7444 0.106132,10.8111 0.342495,9.64444 C0.972798,6.84444 2.62734,4.27778 4.91219,2.48889 C6.72431,1.16667 8.7728,0.311111 11.1364,0 C11.3728,0 11.7667,0 12.2395,0 C13.1849,0 14.2092,0.0777778 14.6819,0.155556 C16.1789,0.388889 17.991,1.16667 18.2273,1.4 C18.3849,1.55556 18.3849,1.86667 18.1486,2.1 C18.0698,2.17778 17.991,2.25556 17.8334,2.25556 C17.6758,2.25556 17.3607,2.17778 16.8879,1.94444 C16.0213,1.55556 14.9183,1.24444 13.9728,1.16667 C13.5789,1.08889 13.1061,1.08889 12.7122,1.08889 C11.8455,1.08889 10.6637,1.16667 10.1122,1.24444 C7.82734,1.71111 6.01522,2.72222 4.36068,4.35556 C3.02128,5.67778 2.15462,7.07778 1.6031,8.78889 C1.05159,10.2667 1.05159,10.2667 1.05159,14.7778 C1.05159,16.8 0.972798,18.6667 0.89401,18.9778 C0.89401,19.1333 0.736435,19.2111 0.578859,19.2111 Z" id="Path" fill-rule="nonzero"></path>
                            <path d="M21.4569,5.05495 C21.2994,5.05495 21.2994,5.05495 20.9054,4.66606 C20.6691,4.43273 20.1963,3.96606 19.8812,3.73273 C19.566,3.49939 19.4085,3.26606 19.4085,3.26606 C19.3297,2.95495 19.4085,2.72161 19.6448,2.56606 C19.7236,2.48828 19.8024,2.48828 19.8812,2.48828 C20.1175,2.48828 20.5115,2.79939 21.063,3.42161 C22.166,4.35495 22.0872,4.43273 22.0085,4.66606 C22.0085,4.89939 21.8509,5.05495 21.4569,5.05495 Z" id="Path" fill-rule="nonzero"></path>
                            <path d="M3.49683,13.69 C3.41804,13.69 3.33925,13.69 3.18168,13.5345 L2.94531,13.3011 L3.0241,12.0567 C3.10289,10.2678 3.33925,9.25668 4.04834,7.93446 C5.38774,5.36779 7.90895,3.50113 10.6665,3.03446 C10.9029,3.03446 11.2968,2.95668 11.3756,2.87891 C11.3756,2.87891 11.612,2.87891 12.1635,2.87891 C12.9514,2.87891 13.7393,2.87891 13.9756,2.95668 C14.3696,3.03446 14.4483,3.03446 14.5271,3.19002 C14.6847,3.42335 14.7635,3.65668 14.5271,3.89002 L14.4483,4.04557 L12.7938,4.04557 C10.7453,4.04557 10.1938,4.12335 8.8544,4.74557 C7.83016,5.21224 7.19986,5.67891 6.49077,6.37891 C4.91501,7.93446 4.04834,9.95668 4.04834,12.29 C4.04834,13.2234 3.96955,13.4567 3.73319,13.5345 C3.6544,13.6122 3.57562,13.69 3.49683,13.69 Z" id="Path" fill-rule="nonzero"></path>
                            <path d="M21.4595,11.4351 C21.2231,11.4351 20.9868,11.2795 20.908,11.0462 C20.5928,9.5684 20.2777,8.8684 19.7262,7.93507 C19.1747,7.00174 17.914,5.75729 16.9686,5.21285 C16.1019,4.6684 16.1019,4.51285 16.1807,4.27951 C16.1807,4.20174 16.3383,4.04618 16.4171,3.9684 C16.5747,3.89062 16.5747,3.89062 16.6534,3.89062 C16.7322,3.89062 16.8898,3.9684 17.205,4.12396 C18.7807,4.97951 20.4353,6.61285 21.2231,8.32396 C21.7747,9.49062 22.0898,10.8906 22.011,11.2017 C22.011,11.2795 21.9322,11.3573 21.8534,11.4351 C21.6959,11.4351 21.5383,11.4351 21.4595,11.4351 Z" id="Path" fill-rule="nonzero"></path>
                            <path d="M24.5331,15.7876 C24.3755,15.7876 24.2179,15.7098 24.1391,15.5543 C24.0604,15.3987 24.0604,14.8543 23.9816,13.0654 C23.9028,10.5765 23.9028,10.1098 23.4301,8.86536 C23.2725,8.47648 22.9573,7.77648 22.721,7.23203 C22.2482,6.2987 22.2482,6.22092 22.5634,5.98759 C22.6422,5.90981 22.7998,5.83203 22.9573,5.83203 C23.0361,5.83203 23.1937,5.90981 23.2725,5.98759 C23.6664,6.37648 24.3755,7.93203 24.6907,9.40981 C25.0058,10.5765 25.0846,11.5098 25.0846,13.6098 C25.0846,15.5543 25.0058,15.5543 24.7695,15.7098 C24.6907,15.7876 24.6119,15.7876 24.5331,15.7876 Z" id="Path" fill-rule="nonzero"></path>
                            <path d="M18.4632,14.3115 C18.3844,14.3115 18.2268,14.2338 18.148,14.156 C17.9904,14.0004 17.9904,14.0004 17.9904,12.9893 C17.9116,11.6671 17.8329,11.1227 17.3601,10.1893 C17.1238,9.72266 16.8874,9.33377 16.4147,8.94488 C15.7056,8.24488 15.0753,7.85599 14.2086,7.54488 C13.6571,7.31155 13.4207,7.31155 12.5541,7.31155 C11.6874,7.31155 11.451,7.31155 10.8995,7.54488 C9.95406,7.85599 9.32376,8.24488 8.53588,9.10043 C7.90558,9.72266 7.82679,9.72266 7.748,9.72266 C7.59043,9.72266 7.59043,9.72266 7.35406,9.5671 C7.1177,9.33377 6.96012,9.17821 7.82679,8.24488 C8.85103,7.07821 10.4268,6.37821 12.0025,6.22266 C12.2389,6.22266 12.3965,6.22266 12.6329,6.22266 C15.0753,6.22266 17.3601,7.62266 18.4632,9.72266 C18.9359,10.656 19.0935,11.356 19.1722,12.6782 C19.251,14.0004 19.1722,14.156 18.9359,14.2338 C18.6995,14.2338 18.6207,14.3115 18.4632,14.3115 Z" id="Path" fill-rule="nonzero"></path>
                            <path d="M15.5509,15.3241 C15.4722,15.3241 15.3146,15.3241 15.157,15.1686 L14.9994,15.0908 L14.9994,13.613 C14.9994,11.9019 14.9206,11.6686 14.3691,10.9686 C13.9752,10.5019 13.2661,10.1908 12.557,10.1908 C12.1631,10.1908 11.7691,10.2686 11.454,10.4241 C10.5873,10.813 10.1934,11.513 10.1146,12.6019 C10.0358,13.2241 10.0358,13.2241 9.95701,13.3019 C9.87822,13.3797 9.72064,13.4575 9.56307,13.4575 C9.3267,13.4575 9.09034,13.3019 9.09034,13.0686 C9.01155,12.913 9.01155,12.7575 9.09034,12.213 C9.24792,10.7352 10.2722,9.56858 11.6116,9.25747 C11.8479,9.17969 12.2419,9.17969 12.6358,9.17969 C12.9509,9.17969 13.1873,9.17969 13.3449,9.25747 C14.6843,9.56858 15.7873,10.7352 16.0237,12.1352 C16.1025,12.7575 16.1025,14.7797 16.0237,15.013 C15.9449,15.1686 15.7873,15.3241 15.5509,15.3241 Z" id="Path" fill-rule="nonzero"></path>
                            <path d="M7.43381,25.8991 C7.19744,25.8991 6.96108,25.7436 6.56714,24.888 C6.01562,23.6436 6.01562,23.5658 6.01562,17.6547 C6.01562,13.0658 6.01562,12.4436 6.09441,12.3658 C6.25199,12.2102 6.33078,12.1325 6.33078,12.1325 C6.40956,12.1325 6.48835,12.0547 6.48835,12.0547 C6.64593,12.0547 6.88229,12.2102 6.96108,12.288 C7.03987,12.5991 7.03987,14.8547 7.03987,17.7325 L7.03987,18.5102 C7.03987,23.488 7.03987,23.488 7.59138,24.5769 L7.67017,24.7325 C8.06411,25.5102 7.98532,25.588 7.82775,25.8214 C7.74896,25.8991 7.67017,25.8991 7.43381,25.8991 Z" id="Path" fill-rule="nonzero"></path>
                            <path d="M12.4766,22.7102 C12.3978,22.7102 12.2403,22.6325 12.1615,22.5547 L12.0039,22.3991 L12.0039,17.3436 C12.0039,13.5325 12.0039,12.3658 12.0827,12.2102 C12.1615,12.1325 12.2403,12.0547 12.3191,12.0547 C12.3978,12.0547 12.3978,12.0547 12.4766,12.0547 C12.5554,12.0547 12.6342,12.0547 12.713,12.1325 L12.7918,12.1325 C13.0281,12.288 13.1069,12.4436 13.0281,17.188 L13.0281,22.3991 L12.8706,22.5547 C12.713,22.7102 12.6342,22.7102 12.4766,22.7102 Z" id="Path" fill-rule="nonzero"></path>
                            <path d="M20.6689,26.9879 C20.4326,26.9879 20.1962,26.8324 20.1174,26.6768 C20.0386,26.5213 20.0386,26.5213 20.275,25.899 C20.4326,25.5879 20.5902,25.1213 20.6689,24.7324 C20.8265,24.1102 20.8265,23.9546 20.9053,18.5879 L20.9053,13.2213 L21.0629,13.0657 C21.2205,12.9879 21.2993,12.9102 21.4568,12.9102 C21.6144,12.9102 21.6932,12.9879 21.8508,13.0657 L22.0083,13.2213 L21.9296,24.1879 L21.772,24.8879 C21.4568,25.9768 21.0629,26.7546 20.9841,26.8324 C20.8265,26.9879 20.7477,26.9879 20.6689,26.9879 Z" id="Path" fill-rule="nonzero"></path>
                            <path d="M3.57495,18.5114 C3.41738,18.5114 3.33859,18.4336 3.18101,18.3558 L3.02344,18.2003 L3.02344,15.2447 L3.18101,15.0891 C3.2598,15.0114 3.41738,14.9336 3.57495,14.9336 C3.65374,14.9336 3.73253,14.9336 3.81132,15.0114 C3.96889,15.1669 4.04768,15.3225 4.04768,16.878 L4.04768,18.278 L3.96889,18.4336 C3.81132,18.5114 3.73253,18.5114 3.57495,18.5114 Z" id="Path" fill-rule="nonzero"></path>
                            <path d="M12.4751,25.6669 C11.9236,25.6669 11.4509,25.5114 10.8994,25.278 C9.95393,24.8114 9.24484,23.9558 9.00848,22.9447 C9.00848,22.7891 8.92969,21.6225 8.92969,18.9003 L8.92969,15.2447 L9.08726,15.0891 C9.16605,15.0114 9.32363,14.9336 9.4812,14.9336 C9.63878,14.9336 9.71757,15.0114 9.79635,15.0891 L9.95393,15.1669 L10.0327,22.7891 L10.2691,23.3336 C10.5054,23.878 10.8206,24.1891 11.3721,24.4225 C11.6085,24.578 12.0024,24.6558 12.4751,24.6558 C12.8691,24.6558 13.263,24.578 13.5782,24.4225 C14.1297,24.1114 14.4448,23.8003 14.6812,23.3336 L14.9176,22.8669 L14.9964,17.0336 L15.1539,16.9558 C15.2327,16.878 15.3903,16.8003 15.4691,16.8003 C15.6267,16.8003 15.7054,16.878 15.863,16.9558 L16.0206,17.1114 L16.0206,19.9114 C16.0206,22.1669 16.0206,22.8669 15.9418,23.178 C15.4691,24.6558 14.1297,25.6669 12.4751,25.6669 Z" id="Path" fill-rule="nonzero"></path>
                            <path d="M12.5553,28.7005 C11.531,28.7005 10.5856,28.4672 9.71889,28.0783 C8.77344,27.6116 8.77344,27.5339 8.77344,27.3005 C8.77344,26.9894 8.85223,26.9116 9.0098,26.8339 C9.08859,26.7561 9.16738,26.7561 9.24616,26.7561 C9.40374,26.7561 9.6401,26.9116 10.1128,27.0672 C11.0583,27.5339 11.6886,27.6894 12.5553,27.6894 C12.7128,27.6894 12.7916,27.6894 12.9492,27.6894 C15.628,27.5339 17.7553,25.5116 18.0704,22.8672 C18.1492,22.4783 18.1492,20.6894 18.1492,19.1339 L18.1492,16.1783 L18.3068,16.0227 C18.3856,15.945 18.4643,15.8672 18.5431,15.8672 C18.5431,15.8672 18.6219,15.8672 18.7007,15.8672 C18.7795,15.8672 18.7795,15.8672 18.8583,15.945 L18.9371,15.945 C19.2522,16.1005 19.2522,16.1005 19.2522,19.445 L19.2522,23.4116 L19.0159,24.0339 C18.3856,25.9783 17.0462,27.4561 15.1553,28.2339 C14.2098,28.545 13.4219,28.7005 12.5553,28.7005 Z" id="Path" fill-rule="nonzero"></path>
                            <path d="M20.6718,31.5778 C20.5142,31.5778 20.3566,31.5 20.2778,31.3444 C20.1991,31.1889 20.1991,31.0333 20.2778,30.8778 C20.2778,30.8 20.593,30.4889 20.9081,30.1 C22.2475,28.7 23.2718,26.7556 23.7445,24.7333 C23.8233,24.2667 23.9021,23.5667 23.9021,20.9222 L23.9809,17.8111 L24.1384,17.6556 C24.296,17.5778 24.3748,17.5 24.4536,17.5 C24.5324,17.5 24.69,17.5778 24.8475,17.7333 L25.0051,17.8889 L25.0051,21 C25.0051,23.9556 24.9263,24.2667 24.8475,24.9667 C24.3748,27.1444 23.3506,29.0889 21.9324,30.7222 C21.2233,31.4222 20.9869,31.5778 20.6718,31.5778 Z" id="Path" fill-rule="nonzero"></path>
                            <path d="M12.5561,31.8886 C11.847,31.8886 11.1379,31.8109 10.744,31.7331 C6.88338,31.1109 3.88944,28.1553 3.18035,24.422 C3.10156,23.9553 3.10156,23.1775 3.10156,22.0109 L3.10156,20.3775 L3.18035,20.222 C3.25914,20.1442 3.41671,20.0664 3.57429,20.0664 C3.73187,20.0664 3.88944,20.1442 3.96823,20.3775 C3.96823,20.4553 4.04702,21.2331 4.04702,22.2442 C4.04702,23.8775 4.1258,24.1109 4.28338,24.8109 C4.67732,26.2886 5.4652,27.5331 6.56823,28.622 C7.35611,29.3997 7.90762,29.7886 8.85308,30.1775 C9.95611,30.722 10.5864,30.7997 12.1622,30.8775 C12.3985,30.8775 12.6349,30.8775 12.8713,30.8775 C13.8955,30.8775 14.5258,30.7997 15.3925,30.4886 C16.4955,30.0997 17.441,29.5553 18.4652,28.622 C18.8591,28.3109 18.8591,28.3109 19.0955,28.3109 C19.4107,28.3109 19.647,28.622 19.647,28.8553 C19.647,29.0109 19.647,29.0108 19.3319,29.3997 C18.15,30.5664 16.4167,31.4997 14.6834,31.8886 C14.2107,31.8886 13.344,31.8886 12.5561,31.8886 Z" id="Path" fill-rule="nonzero"></path>
                            <path d="M12.5557,34.7663 C10.586,34.7663 10.1133,34.6885 8.53751,34.1441 C4.6769,32.8997 1.60417,29.7108 0.501144,25.8219 C0.264781,24.8885 0.107205,23.9552 0.0284172,22.633 C-0.0503707,21.1552 0.0284172,21.0774 0.343569,20.9997 C0.422357,20.9997 0.501144,20.9219 0.579932,20.9219 C0.816296,20.9219 0.973872,21.0774 1.05266,21.233 C1.05266,21.3108 1.13145,22.0108 1.13145,22.7885 C1.13145,23.7997 1.21024,24.4219 1.36781,24.8885 C2.47084,29.3997 5.85872,32.6663 10.5072,33.5997 C10.9799,33.6774 11.689,33.7552 12.4769,33.7552 C13.3436,33.7552 14.2102,33.6774 14.7618,33.5997 C15.8648,33.3663 16.8102,33.0552 17.7557,32.5885 C18.1496,32.3552 18.5436,32.2774 18.6224,32.2774 C18.7799,32.2774 18.9375,32.3552 19.0163,32.5885 C19.0951,32.7441 19.0951,32.9774 18.9375,33.133 C18.6224,33.5219 16.6527,34.3774 14.9981,34.6885 C14.3678,34.7663 14.0527,34.7663 12.5557,34.7663 Z" id="Path" fill-rule="nonzero"></path>
                            <polygon id="Path" fill-rule="nonzero" points="44.2422 12 51.2422 12 51.2422 14.4694 46.7806 14.4694 46.7806 16.3401 50.2422 16.3401 50.2422 18.6599 46.7806 18.6599 46.7806 20.5306 51.2422 20.5306 51.2422 23 44.2422 23"></polygon>
                            <polygon id="Path" fill-rule="nonzero" points="70.9606 14.4694 68.2422 14.4694 68.2422 12 76.2422 12 76.2422 14.4694 73.5237 14.4694 73.5237 23 70.9606 23"></polygon>
                            <polygon id="Path" fill-rule="nonzero" points="90.2422 12 92.9035 12 92.9035 16.3401 97.5809 16.3401 97.5809 12 100.242 12 100.242 23 97.5809 23 97.5809 18.6599 92.9035 18.6599 92.9035 23 90.2422 23"></polygon>
                            <polygon id="Path" fill-rule="nonzero" points="118.455 18.3605 114.242 12 117.207 12 119.703 15.8912 122.2 12 125.242 12 121.029 18.3605 121.029 23 118.455 23"></polygon>
                            <path d="M137.242,17 C137.242,13.72 139.992,11 143.308,11 C145.33,11 147.191,12.04 148.242,13.56 L146.22,15.16 C145.654,14.2 144.522,13.56 143.308,13.56 C141.367,13.56 139.911,15.16 139.911,17 C139.911,18.84 141.367,20.44 143.308,20.44 C144.602,20.44 145.654,19.8 146.22,18.84 L148.242,20.44 C147.11,21.96 145.33,23 143.308,23 C139.911,22.92 137.242,20.28 137.242,17 Z" id="Path" fill-rule="nonzero"></path>
                            <path d="M172.242,23 L166.818,11 L161.242,23 L163.879,23 L164.708,21.1351 L168.776,21.1351 L169.605,23 L172.242,23 Z M166.818,16.5135 L167.872,18.9459 L165.763,18.9459 L166.818,16.5135 Z" id="Shape"></path>
                        </g>
                    </g>
                </g>
            </g>
        </g>
    </g>
</svg>