<?xml version="1.0" encoding="UTF-8"?>
<svg width="20px" height="20px" viewBox="0 0 20 20" version="1.1" xmlns="http://www.w3.org/2000/svg" xmlns:xlink="http://www.w3.org/1999/xlink">
    <title>ic-skype</title>
    <g id="Page-1" stroke="none" stroke-width="1" fill="none" fill-rule="evenodd">
        <g id="Capcon-After--Home-Page01" transform="translate(-237.000000, -5471.000000)" fill="#9194A3" fill-rule="nonzero">
            <g id="Group-15" transform="translate(236.000000, 5470.000000)">
                <g id="skype" transform="translate(1.000000, 1.000000)">
                    <path d="M19.126,11.425 C19.5881869,8.49840326 18.622022,5.52735109 16.5268592,3.43238612 C14.4316965,1.33742116 11.4605531,0.371536803 8.534,0.834 C6.32658833,-0.528190223 3.47241602,-0.194888358 1.63826383,1.63926383 C-0.195888358,3.47341602 -0.529190223,6.32758833 0.833,8.535 C0.370076325,11.4616472 1.33580919,14.4330752 3.43089074,16.5283546 C5.5259723,18.6236339 8.49730907,19.5896474 11.424,19.127 C12.278,19.652 13.284,19.958 14.363,19.958 C16.3914659,19.958 18.2611678,18.8604961 19.2497476,17.08923 C20.2383275,15.3179638 20.1909809,13.1504095 19.126,11.424 L19.126,11.425 Z M14.376,14.191 C13.984,14.755 13.409,15.195 12.656,15.512 C11.903,15.83 11.013,15.988 9.984,15.988 C8.752,15.988 7.731,15.772 6.926,15.337 C6.36832435,15.0369295 5.89065864,14.6076133 5.533,14.085 C5.176,13.563 4.994,13.051 4.994,12.553 C4.994,12.259 5.106,12.003 5.324,11.794 C5.545,11.584 5.829,11.479 6.164,11.479 C6.439,11.479 6.675,11.562 6.868,11.726 C7.058,11.89 7.218,12.128 7.349,12.442 C7.506,12.807 7.676,13.112 7.857,13.354 C8.037,13.594 8.291,13.794 8.619,13.951 C8.944,14.108 9.376,14.187 9.916,14.187 C10.656,14.187 11.254,14.027 11.712,13.711 C12.172,13.393 12.392,13.005 12.392,12.537 C12.392,12.163 12.274,11.867 12.029,11.635 C11.783,11.401 11.465,11.222 11.069,11.098 C10.673,10.972 10.141,10.838 9.473,10.698 C8.577,10.502 7.828,10.275 7.221,10.013 C6.614,9.751 6.13,9.393 5.771,8.939 C5.411,8.482 5.232,7.913 5.232,7.239 C5.232,6.597 5.422,6.023 5.8,5.523 C6.179,5.022 6.727,4.638 7.44,4.371 C8.152,4.104 8.99,3.971 9.95,3.971 C10.718,3.971 11.382,4.059 11.944,4.236 C12.504,4.414 12.971,4.649 13.344,4.943 C13.716,5.238 13.989,5.548 14.162,5.873 C14.335,6.2 14.422,6.519 14.422,6.83 C14.422,7.12 14.31,7.382 14.092,7.612 C13.872,7.842 13.593,7.959 13.267,7.958 C12.973,7.958 12.742,7.89 12.582,7.747 C12.426,7.607 12.262,7.387 12.085,7.077 C11.861,6.647 11.593,6.312 11.281,6.072 C10.977,5.837 10.476,5.714 9.779,5.716 C9.134,5.716 8.619,5.847 8.229,6.106 C7.837,6.367 7.649,6.671 7.649,7.026 C7.649,7.25 7.714,7.438 7.843,7.599 C7.973,7.761 8.156,7.902 8.39,8.02 C8.625,8.14 8.863,8.234 9.103,8.3 C9.345,8.37 9.748,8.469 10.307,8.6 C11.008,8.752 11.644,8.92 12.216,9.104 C12.786,9.289 13.273,9.512 13.676,9.778 C14.08,10.043 14.397,10.381 14.623,10.789 C14.851,11.198 14.965,11.697 14.965,12.284 C14.965,12.992 14.769,13.628 14.375,14.191 L14.376,14.191 Z" id="ic-skype"></path>
                </g>
            </g>
        </g>
    </g>
</svg>