<?xml version="1.0" encoding="UTF-8"?>
<svg width="20px" height="20px" viewBox="0 0 20 20" version="1.1" xmlns="http://www.w3.org/2000/svg" xmlns:xlink="http://www.w3.org/1999/xlink">
    <title>ic-slack</title>
    <g id="Page-1" stroke="none" stroke-width="1" fill="none" fill-rule="evenodd">
        <g id="Capcon-After--Home-Page01" transform="translate(-236.000000, -5573.000000)" fill="#9194A3" fill-rule="nonzero">
            <g id="Group-15" transform="translate(236.000000, 5470.000000)">
                <g id="ic-slack" transform="translate(0.000000, 103.000000)">
                    <path d="M19.874,10.725 C19.7288036,10.2761939 19.4111199,9.90353331 18.9909508,9.68913451 C18.5707817,9.47473571 18.0826082,9.43619325 17.634,9.582 L15.842,10.165 L14.625,6.415 L16.417,5.832 C17.3531227,5.52824339 17.8657566,4.52312265 17.562,3.587 C17.2582434,2.65087735 16.2531227,2.13824339 15.317,2.442 L13.527,3.027 L12.944,1.232 C12.7992379,0.782850569 12.4816732,0.409780827 12.0614079,0.195145347 C11.6411426,-0.0194901327 11.1527349,-0.0580420038 10.704,0.088 C9.76948007,0.393443032 9.25890248,1.39804137 9.563,2.333 L10.145,4.128 L6.403,5.347 C6.05,4.255 5.82,3.552 5.82,3.552 C5.67500959,3.1030101 5.35741126,2.73011398 4.93721878,2.51551568 C4.5170263,2.30091738 4.0287395,2.26223645 3.58,2.408 C3.13092355,2.55404178 2.75828355,2.87254636 2.54410198,3.29340751 C2.32992041,3.71426867 2.29175271,4.20299043 2.438,4.652 L3.021,6.448 L1.171,7.05 C0.291031711,7.37074704 -0.190151088,8.31825322 0.07,9.218 C0.342,10.163 1.344,10.739 2.27,10.438 L4.12,9.835 L5.336,13.585 L3.487,14.188 C2.60777505,14.5091181 2.12624156,15.4551589 2.384,16.355 C2.656,17.3 3.658,17.878 4.584,17.575 C4.592,17.573 5.32,17.337 6.435,16.973 L7.036,18.825 C7.35428454,19.7052937 8.30029084,20.1883514 9.2,19.93 C10.143,19.658 10.72,18.654 10.417,17.725 L9.817,15.873 L13.56,14.654 L14.161,16.507 C14.4792616,17.3868027 15.4246055,17.8697454 16.324,17.612 C17.268,17.339 17.844,16.335 17.542,15.407 L16.941,13.554 C17.5379785,13.3592673 18.1349785,13.1646006 18.732,12.97 C19.666533,12.6645254 20.1774178,11.6602028 19.874,10.725 L19.874,10.725 Z M8.718,12.485 L7.502,8.735 L11.244,7.517 L12.461,11.267 L8.718,12.485 Z" id="Shape"></path>
                </g>
            </g>
        </g>
    </g>
</svg>