<?xml version="1.0" encoding="UTF-8"?>
<svg width="20px" height="21px" viewBox="0 0 20 21" version="1.1" xmlns="http://www.w3.org/2000/svg" xmlns:xlink="http://www.w3.org/1999/xlink">
    <title>ic-whatsapp</title>
    <g id="Page-1" stroke="none" stroke-width="1" fill="none" fill-rule="evenodd">
        <g id="Capcon-After--Home-Page01" transform="translate(-236.000000, -5521.000000)" fill="#9194A3" fill-rule="nonzero">
            <g id="Group-15" transform="translate(236.000000, 5470.000000)">
                <g id="ic-whatsapp" transform="translate(0.000000, 51.000000)">
                    <path d="M9.516,1.012 C4.206,1.262 0.017,5.652 0.0329543188,10.929 C0.0356305965,12.4822965 0.407523035,14.012711 1.118,15.394 L0.06,20.495 C0.0337646672,20.6246129 0.0755281207,20.758649 0.170743063,20.85042 C0.265958005,20.942191 0.401441077,20.9789904 0.53,20.948 L5.564,19.764 C6.89728119,20.4228672 8.36094827,20.7754593 9.848,20.796 C15.275,20.879 19.799,16.601 19.968,11.216 C20.15,5.441 15.351,0.735 9.516,1.011 L9.516,1.012 Z M15.523,16.379 C14.0577082,17.8390583 12.0715269,18.6558393 10.003,18.6490426 C8.79801256,18.6526891 7.60868056,18.3760684 6.529,17.841 L5.828,17.494 L2.741,18.22 L3.391,15.089 L3.045,14.417 C2.48409918,13.3297397 2.19323533,12.1234093 2.19696392,10.9 C2.19696392,8.83 3.009,6.883 4.483,5.42 C5.95219569,3.96570086 7.93575024,3.14964064 10.003,3.149 C12.089,3.149 14.049,3.955 15.523,5.419 C16.9900007,6.86463544 17.8141423,8.83940396 17.8100155,10.899 C17.8100155,12.951 16.985,14.929 15.523,16.38 L15.523,16.379 Z" id="Shape"></path>
                    <path d="M14.842,13.045 L12.911,12.495 C12.6571998,12.4221502 12.3838707,12.4934534 12.198,12.681 L11.726,13.159 C11.5263352,13.3612413 11.2249808,13.4242696 10.961,13.319 C10.048,12.952 8.126,11.256 7.635,10.407 C7.49419906,10.1616938 7.51635383,9.85548313 7.691,9.633 L8.103,9.103 C8.26462683,8.89607347 8.29885794,8.61683996 8.192,8.377 L7.38,6.553 C7.28689621,6.34632255 7.10225027,6.19527465 6.88122054,6.14497811 C6.6601908,6.09468157 6.42836674,6.1509594 6.255,6.297 C5.716,6.75 5.076,7.437 4.999,8.2 C4.862,9.543 5.442,11.236 7.636,13.27 C10.171,15.619 12.202,15.93 13.523,15.611 C14.273,15.431 14.873,14.708 15.25,14.117 C15.3722712,13.9266293 15.3969307,13.6895247 15.3164506,13.4780673 C15.2359706,13.2666099 15.0599044,13.1059009 14.842,13.045 Z" id="Path"></path>
                </g>
            </g>
        </g>
    </g>
</svg>