<?xml version="1.0" encoding="UTF-8"?>
<svg width="61px" height="31px" viewBox="0 0 61 31" version="1.1" xmlns="http://www.w3.org/2000/svg" xmlns:xlink="http://www.w3.org/1999/xlink">
    <title>logo</title>
    <g id="Page-1" stroke="none" stroke-width="1" fill="none" fill-rule="evenodd">
        <g id="Capcon-After--Home-Page01" transform="translate(-689.000000, -45.000000)" fill="#FFFFFF" fill-rule="nonzero">
            <g id="Group-28" transform="translate(-493.297025, -237.631490)">
                <g id="logo" transform="translate(1183.297025, 283.631490)">
                    <path d="M6.50142,13.4438 C10.0921,13.4438 13.0028,10.4343 13.0028,6.72189 C13.0028,3.00949 10.0921,0 6.50142,0 C2.91079,0 0,3.00949 0,6.72189 C0,10.4343 2.91079,13.4438 6.50142,13.4438 Z" id="Path"></path>
                    <path d="M32.7479,0 L28.9968,6.72731 L20.3108,22.2781 L20.3108,22.316 C19.1635,24.3532 17.5186,26.0429 15.5409,27.2159 C13.5632,28.389 11.3221,29.0042 9.04205,29.0000214 L6.49072,29.0000214 L10.247,22.2781 L18.933,6.72731 C20.0738,4.68217 21.7154,2.9837 23.6927,1.80276 C25.6699,0.621818 27.9131,0 30.1965,0 L32.7479,0 Z" id="Path"></path>
                    <path d="M45.882,0 L42.1258,6.72731 L33.4397,22.2781 L33.4397,22.316 C32.2932,24.3527 30.6492,26.0422 28.6724,27.2153 C26.6957,28.3883 24.4554,29.0038 22.1762,29.0000175 L19.6196,29.0000175 L23.3759,22.2781 L32.0619,6.72731 C33.2027,4.68217 34.8443,2.9837 36.8216,1.80276 C38.7988,0.621818 41.042,0 43.3255,0 L45.882,0 Z" id="Path"></path>
                    <path d="M58.9998,0 L55.2436,6.72731 L46.5575,22.2781 C46.5593,22.2907 46.5593,22.3035 46.5575,22.316 C45.411,24.3527 43.767,26.0422 41.7903,27.2153 C39.8135,28.3883 37.5733,29.0038 35.294,29.0000175 L32.7427,29.0000175 L36.4989,22.2781 L45.1797,6.72731 C46.3205,4.68217 47.9621,2.9837 49.9394,1.80276 C51.9166,0.621818 54.1598,0 56.4433,0 L58.9998,0 Z" id="Path"></path>
                </g>
            </g>
        </g>
    </g>
</svg>