<?xml version="1.0" encoding="UTF-8"?>
<svg width="212px" height="39px" viewBox="0 0 212 39" version="1.1" xmlns="http://www.w3.org/2000/svg" xmlns:xlink="http://www.w3.org/1999/xlink">
    <title>ic-eversana</title>
    <defs>
        <polygon id="path-1" points="0.5625 0.363281 193.001 0.363281 193.001 16.3448 0.5625 16.3448"></polygon>
    </defs>
    <g id="Page-1" stroke="none" stroke-width="1" fill="none" fill-rule="evenodd" opacity="0.6">
        <g id="Capcon-After--Home-Page01" transform="translate(-994.000000, -1187.000000)">
            <g id="Group-28" transform="translate(-493.297025, -237.631490)">
                <g id="Group-16" transform="translate(718.297025, 1291.631490)">
                    <g id="ic-eversana" transform="translate(770.000000, 134.000000)">
                        <g id="Group">
                            <polygon id="Path" fill="#FFFFFF" points="52.6564 17.4404 62.2118 17.4404 62.2118 18.5941 52.6564 18.5941 52.6564 25.0917 62.9573 25.0917 62.9573 26.3159 51.4219 26.3159 51.4219 9.83594 62.6777 9.83594 62.6777 11.037 52.6564 11.037"></polygon>
                            <polygon id="Path" fill="#FFFFFF" points="83.0954 9.83594 76.3838 26.3633 75.0319 26.3633 68.3203 9.83594 69.6722 9.83594 75.7079 24.9034 81.744 9.83594"></polygon>
                            <path d="M101.249,26.3141 L89.5508,26.3141 C89.5508,20.8287 89.5508,15.3197 89.5508,9.83428 L101.04,9.83428 L101.04,11.3881 L91.1822,11.3881 L91.1822,17.2973 L100.597,17.2973 L100.597,18.8275 L91.1822,18.8275 L91.1822,24.7604 L101.249,24.7604 L101.249,26.3141 Z M119.125,15.155 C119.148,13.5068 117.983,11.6707 115.629,11.6707 L110.246,11.6707 L110.246,18.5452 L115.536,18.5452 C117.983,18.5452 119.125,17.0146 119.125,15.155 Z M114.208,20.3817 L110.246,20.3817 L110.246,26.3141 L108.219,26.3141 L108.219,9.83428 L115.629,9.83428 C119.311,9.83428 121.152,12.424 121.152,15.1078 C121.176,17.6032 119.824,19.9343 116.468,20.2166 L121.852,26.3141 L119.288,26.3141 L114.208,20.3817 Z M137.932,13.4832 C137.163,12.3533 135.602,11.6707 133.901,11.6472 C131.71,11.6472 130.126,12.5652 130.126,14.1426 C130.126,15.7435 131.943,16.1909 134.087,16.4968 C137.443,16.9675 140.635,17.9095 140.635,21.606 C140.612,25.3017 137.28,26.6908 133.877,26.6908 C130.755,26.6908 128.354,25.7256 126.863,22.9475 L128.82,21.6292 C129.985,23.6304 132.013,24.3365 133.901,24.3365 C135.858,24.3365 138.025,23.6776 138.025,21.606 C138.025,19.8163 136.138,19.2042 133.854,18.8983 C130.615,18.4509 127.539,17.6268 127.539,14.0954 C127.515,10.6819 130.894,9.36328 133.83,9.36328 C136.185,9.36328 138.538,9.92826 139.913,12.1414 L137.932,13.4832 Z M153.664,12.612 L150.215,20.4521 L157.113,20.4521 L153.664,12.612 Z M158.068,22.8535 L149.236,22.8535 L147.698,26.3141 L144.925,26.3141 L152.242,9.83428 L155.085,9.83428 L162.403,26.3141 L159.63,26.3141 L158.068,22.8535 Z" id="Shape" fill="#FFFFFF"></path>
                            <polygon id="Path" fill="#FFFFFF" points="179.417 21.5607 179.417 9.83594 182.027 9.83594 182.027 26.3159 180.046 26.3159 170.794 14.6859 170.794 26.3159 168.16 26.3159 168.16 9.83594 170.164 9.83594"></polygon>
                            <path d="M196.524,12.6137 L193.075,20.4537 L199.973,20.4537 L196.524,12.6137 Z M200.928,22.8552 L192.096,22.8552 L190.558,26.3158 L187.785,26.3158 L195.102,9.83594 L197.945,9.83594 L205.263,26.3158 L202.49,26.3158 L200.928,22.8552 Z" id="Shape" fill="#FFFFFF"></path>
                            <polygon id="Path" fill="#FFFFFF" points="19.0823 36.059 14.5035 27.8516 12.7424 27.8516 16.3287 34.2797 14.5548 34.2797 10.968 27.8516 9.2069 27.8516 12.7937 34.2797 11.0198 34.2797 7.43298 27.8516 5.67188 27.8516 10.2511 36.059"></polygon>
                            <polygon id="Path" fill="#FFFFFF" points="35.2907 28.2773 25.9646 28.2828 25.1008 29.8333 32.405 29.8294 31.5353 31.3908 24.2306 31.3953 23.3668 32.9453 30.6715 32.9414 29.8013 34.5033 22.4966 34.5073 21.6328 36.0578 30.959 36.0524"></polygon>
                            <polygon id="Path" fill="#FFFFFF" points="22.1523 0 26.7311 8.20795 28.4922 8.20795 24.9054 1.77885 26.6798 1.77885 30.2661 8.20795 32.0272 8.20795 28.4409 1.77885 30.2149 1.77885 33.8011 8.20795 35.5622 8.20795 30.984 0"></polygon>
                            <polygon id="Path" fill="#FFFFFF" points="5.88672 7.7805 15.2124 7.77507 16.0762 6.2245 8.77193 6.22893 9.64163 4.66702 16.9464 4.66258 17.8101 3.112 10.5054 3.11644 11.3756 1.55452 18.6803 1.55058 19.5436 0 10.2185 0.00542333"></polygon>
                            <polygon id="Path" fill="#FFFFFF" points="4.57482 25.6794 9.1521 17.471 8.24 15.949 4.65518 22.3786 3.73568 20.8457 7.32099 14.4161 6.4084 12.8942 2.82358 19.3238 1.90457 17.7909 5.48988 11.3613 4.57728 9.83984 0 18.0478"></polygon>
                            <polygon id="Path" fill="#FFFFFF" points="36.5973 10.3555 32.0195 18.5644 32.9321 20.0859 36.5174 13.6563 37.4364 15.1896 33.8511 21.6192 34.7632 23.1407 38.349 16.7116 39.2676 18.2444 35.6827 24.674 36.5948 26.1955 41.1721 17.9871"></polygon>
                            <polygon id="Path" fill="#FFFFFF" points="20.1555 19.1758 19.2917 20.7259 23.0052 27.3818 22.134 28.9461 18.421 22.2907 17.5572 23.8408 21.2702 30.4967 20.4015 32.0552 16.6885 25.4003 15.8242 26.9504 20.403 35.1568 24.7342 27.3827"></polygon>
                            <polygon id="Path" fill="#FFFFFF" points="19.2048 18.2734 17.4442 18.2744 13.5285 24.8115 11.7521 24.8125 15.6673 18.2759 13.9062 18.2774 9.99104 24.814 8.22008 24.815 12.1352 18.2789 10.3741 18.2798 5.54688 26.3399 14.3775 26.333"></polygon>
                            <polygon id="Path" fill="#FFFFFF" points="19.9129 16.816 18.9954 15.2975 11.4323 15.3241 10.5064 13.7922 18.0685 13.7661 17.151 12.2476 9.58842 12.2742 8.66498 10.7478 16.2276 10.7207 15.3095 9.20312 5.98438 9.23566 10.5883 16.8485"></polygon>
                            <polygon id="Path" fill="#FFFFFF" points="21.4961 19.181 22.4136 20.6995 29.9767 20.6729 30.9031 22.2042 23.3405 22.2309 24.2585 23.7489 31.8206 23.7228 32.7441 25.2497 25.1815 25.2758 26.099 26.7938 35.4242 26.7613 30.8212 19.1484"></polygon>
                            <polygon id="Path" fill="#FFFFFF" points="21.9062 17.668 23.6669 17.667 27.5825 11.13 29.3589 11.129 25.4437 17.6651 27.2048 17.6636 31.12 11.1275 32.8909 11.126 28.9758 17.6621 30.7369 17.6616 35.5641 9.60156 26.7335 9.60797"></polygon>
                            <g id="Clipped" transform="translate(16.000000, 0.000000)">
                                <mask id="mask-2" fill="white">
                                    <use xlink:href="#path-1"></use>
                                </mask>
                                <g id="Path"></g>
                                <g id="Group" mask="url(#mask-2)" fill="#FFFFFF">
                                    <polygon id="Path" points="5.1413 16.3448 6.0051 14.7947 2.2916 8.13835 3.1632 6.57447 6.8762 13.2299 7.74 11.6798 4.027 5.02389 4.8952 3.46493 8.6087 10.1203 9.4725 8.57025 4.8938 0.363281 0.5625 8.13786"></polygon>
                                    <path d="M189.732,9.83594 L190.186,9.83594 L191.372,11.3672 L192.569,9.83594 L193.002,9.83594 L193.002,12.7534 L192.518,12.7534 L192.518,10.6484 L191.403,12.024 L191.311,12.024 L190.217,10.607 L190.217,12.7534 L189.732,12.7534 L189.732,9.83594 Z M187.515,10.2525 L186.359,10.2525 L186.359,9.83594 L189.175,9.83594 L189.175,10.2525 L188,10.2525 L188,12.7534 L187.515,12.7534 L187.515,10.2525 Z" id="Shape"></path>
                                </g>
                            </g>
                        </g>
                    </g>
                </g>
            </g>
        </g>
    </g>
</svg>